<?xml version="1.0" encoding="utf-8"?>
<svg viewBox="10.72 94.705 269.64 88.76" width="269.64" height="88.76" xmlns="http://www.w3.org/2000/svg">
    <path fill="#EA4335" d="M115.75 47.18c0 12.77-9.99 22.18-22.25 22.18s-22.25-9.41-22.25-22.18C71.25 34.32 81.24 25 93.5 25s22.25 9.32 22.25 22.18zm-9.74 0c0-7.98-5.79-13.44-12.51-13.44S80.99 39.2 80.99 47.18c0 7.9 5.79 13.44 12.51 13.44s12.51-5.55 12.51-13.44z" transform="matrix(1, 0, 0, 1, 10.359906, 94.234505)"/>
    <path fill="#FBBC05" d="M 222.11 141.415 C 222.11 154.185 212.12 163.595 199.86 163.595 C 187.6 163.595 177.61 154.185 177.61 141.415 C 177.61 128.565 187.6 119.235 199.86 119.235 C 212.12 119.235 222.11 128.555 222.11 141.415 Z M 212.37 141.415 C 212.37 133.435 206.58 127.975 199.86 127.975 C 193.14 127.975 187.35 133.435 187.35 141.415 C 187.35 149.315 193.14 154.855 199.86 154.855 C 206.58 154.855 212.37 149.305 212.37 141.415 Z"/>
    <path fill="#4285F4" d="M 173.11 120.575 L 173.11 160.395 C 173.11 176.775 163.45 183.465 152.03 183.465 C 141.28 183.465 134.81 176.275 132.37 170.395 L 140.85 166.865 C 142.36 170.475 146.06 174.735 152.02 174.735 C 159.33 174.735 163.86 170.225 163.86 161.735 L 163.86 158.545 L 163.52 158.545 C 161.34 161.235 157.14 163.585 151.84 163.585 C 140.75 163.585 130.59 153.925 130.59 141.495 C 130.59 128.975 140.75 119.235 151.84 119.235 C 157.13 119.235 161.33 121.585 163.52 124.195 L 163.86 124.195 L 163.86 120.585 L 173.11 120.585 L 173.11 120.575 Z M 164.55 141.495 C 164.55 133.685 159.34 127.975 152.71 127.975 C 145.99 127.975 140.36 133.685 140.36 141.495 C 140.36 149.225 145.99 154.855 152.71 154.855 C 159.34 154.855 164.55 149.225 164.55 141.495 Z"/>
    <path fill="#34A853" d="M225 3v65h-9.5V3h9.5z" transform="matrix(1, 0, 0, 1, 10.359906, 94.234505)"/>
    <path fill="#EA4335" d="M262.02 54.48l7.56 5.04c-2.44 3.61-8.32 9.83-18.48 9.83-12.6 0-22.01-9.74-22.01-22.18 0-13.19 9.49-22.18 20.92-22.18 11.51 0 17.14 9.16 18.98 14.11l1.01 2.52-29.65 12.28c2.27 4.45 5.8 6.72 10.75 6.72 4.96 0 8.4-2.44 10.92-6.14zm-23.27-7.98l19.82-8.23c-1.09-2.77-4.37-4.7-8.23-4.7-4.95 0-11.84 4.37-11.59 12.93z" transform="matrix(1, 0, 0, 1, 10.359906, 94.234505)"/>
    <path fill="#4285F4" d="M35.29 41.41V32H67c.31 1.64.47 3.58.47 5.68 0 7.06-1.93 15.79-8.15 22.01-6.05 6.3-13.78 9.66-24.02 9.66C16.32 69.35.36 53.89.36 34.91.36 15.93 16.32.47 35.3.47c10.5 0 17.98 4.12 23.6 9.49l-6.64 6.64c-4.03-3.78-9.49-6.72-16.97-6.72-13.86 0-24.7 11.17-24.7 25.03 0 13.86 10.84 25.03 24.7 25.03 8.99 0 14.11-3.61 17.39-6.89 2.66-2.66 4.41-6.46 5.1-11.65l-22.49.01z" transform="matrix(1, 0, 0, 1, 10.359906, 94.234505)"/>
</svg>